<?xml version="1.0" encoding="iso-8859-1"?>
<!-- Generator: Adobe Illustrator 19.0.0, SVG Export Plug-In . SVG Version: 6.00 Build 0)  -->
<svg version="1.1" id="Layer_1" xmlns="http://www.w3.org/2000/svg" xmlns:xlink="http://www.w3.org/1999/xlink" x="0px" y="0px"
	 viewBox="0 0 512 512" style="enable-background:new 0 0 512 512;" xml:space="preserve">
<g>
	<g>
		<path d="M116.349,104.804c-37.392,0-67.812,30.42-67.812,67.812c0,37.392,30.42,67.812,67.812,67.812
			c37.392,0,67.812-30.42,67.812-67.812C184.161,135.224,153.74,104.804,116.349,104.804z M116.349,209.081
			c-20.107,0-36.465-16.358-36.465-36.465c0-20.107,16.358-36.465,36.465-36.465c20.107,0,36.465,16.358,36.465,36.465
			C152.814,192.723,136.455,209.081,116.349,209.081z"/>
	</g>
</g>
<g>
	<g>
		<rect x="98.889" y="155.157" width="34.923" height="34.923"/>
	</g>
</g>
<g>
	<g>
		<path d="M258.155,60.061v88.212h-25.88C227.27,89.291,177.672,42.821,117.417,42.821h-2.135C51.715,42.821,0,94.536,0,158.102
			v311.077h232.698V179.62h25.456v70.527H512V60.061H258.155z M201.351,437.832H31.347v-279.73
			c0-46.282,37.653-83.935,83.935-83.935h2.135c46.282,0,83.935,37.653,83.935,83.935V437.832z M480.653,218.801H289.502v-13.976
			h191.152V218.801z M480.653,179.087H289.502V91.408h191.152V179.087z"/>
	</g>
</g>
<g>
	<g>
		<rect x="130.675" y="383.363" width="50.153" height="31.347"/>
	</g>
</g>
<g>
</g>
<g>
</g>
<g>
</g>
<g>
</g>
<g>
</g>
<g>
</g>
<g>
</g>
<g>
</g>
<g>
</g>
<g>
</g>
<g>
</g>
<g>
</g>
<g>
</g>
<g>
</g>
<g>
</g>
</svg>
