<?xml version="1.0" encoding="iso-8859-1"?>
<svg version="1.1" id="Layer_1" xmlns="http://www.w3.org/2000/svg" xmlns:xlink="http://www.w3.org/1999/xlink" x="0px" y="0px"
	 viewBox="0 0 512 512" style="enable-background:new 0 0 512 512;" xml:space="preserve">
<g>
	<g>
		<path d="M503.565,299.503c0.273-2.064,0.427-4.148,0.427-6.247c0-26.506-21.533-48.078-48.023-48.144
			c-7.829-16.135-24.39-27.184-43.337-27.184c-9.624,0-18.792,2.826-26.527,7.942c-7.737-5.117-16.904-7.942-26.528-7.942
			c-18.947,0-35.507,11.049-43.337,27.184c-26.49,0.066-48.023,21.638-48.023,48.144c0,2.107,0.148,4.191,0.413,6.247h-6.539v33.391
			h12.449l21.376,179.075h180.38l21.376-179.075h12.449v-33.391H503.565z M446.652,478.58H325.557l-17.391-145.684h8.617
			l16.287,60.968h106.066l16.287-60.968h8.617L446.652,478.58z M351.346,332.895h69.517l-7.367,27.577h-54.783L351.346,332.895z
			 M469.21,299.503H303.006c-0.906-1.932-1.399-4.049-1.399-6.246c0-8.134,6.618-14.752,14.752-14.752
			c1.916,0,3.782,0.364,5.547,1.082l21.531,8.754l1.421-23.199c0.475-7.75,6.94-13.821,14.717-13.821
			c5.062,0,9.716,2.56,12.451,6.85l14.078,22.078l14.078-22.078c2.735-4.29,7.388-6.85,12.451-6.85
			c7.777,0,14.241,6.072,14.718,13.821l1.422,23.198l21.531-8.754c1.765-0.718,3.632-1.082,5.547-1.082
			c8.134,0,14.751,6.618,14.751,14.752C470.602,295.462,470.113,297.576,469.21,299.503z"/>
	</g>
</g>
<g>
	<g>
		<path d="M370.078,0c-22.436,0-40.69,18.253-40.69,40.69c0,22.437,18.254,40.688,40.69,40.688c22.436,0,40.69-18.253,40.69-40.69
			C410.768,18.252,392.514,0,370.078,0z M370.078,47.988c-4.025,0-7.298-3.273-7.298-7.298c0-4.025,3.275-7.298,7.298-7.298
			s7.298,3.273,7.298,7.298C377.376,44.714,374.103,47.988,370.078,47.988z"/>
	</g>
</g>
<g>
	<g>
		<path d="M438.079,78.234c-22.437,0-40.69,18.254-40.69,40.69s18.253,40.69,40.69,40.69c22.437,0,40.69-18.253,40.69-40.69
			S460.516,78.234,438.079,78.234z M438.078,126.221c-4.025,0-7.298-3.273-7.298-7.298c0-4.025,3.275-7.298,7.298-7.298
			c4.024,0,7.298,3.273,7.298,7.298C445.377,122.948,442.103,126.221,438.078,126.221z"/>
	</g>
</g>
<g>
	<g>
		<path d="M346.085,123.353c-22.437,0-40.69,18.253-40.69,40.69c0,22.437,18.253,40.69,40.69,40.69
			c22.436,0,40.69-18.253,40.69-40.69C386.775,141.606,368.522,123.353,346.085,123.353z M346.085,171.342
			c-4.025,0-7.298-3.273-7.298-7.298s3.273-7.298,7.298-7.298c4.024,0,7.298,3.273,7.298,7.298S350.11,171.342,346.085,171.342z"/>
	</g>
</g>
<g>
	<g>
		<path d="M143.588,360.471V64.682h-33.391v295.79H1.88v86.888h12.628V512h224.769v-64.641h12.628v-86.888H143.588z M62.353,478.609
			H47.9v-31.25h14.453V478.609z M110.197,478.609H95.744v-31.25h14.453V478.609z M158.042,478.609h-14.453v-31.25h14.453V478.609z
			 M205.886,478.609h-14.453v-31.25h14.453V478.609z M35.271,413.968v-20.105h183.241v20.105H35.271z"/>
	</g>
</g>
<g>
</g>
<g>
</g>
<g>
</g>
<g>
</g>
<g>
</g>
<g>
</g>
<g>
</g>
<g>
</g>
<g>
</g>
<g>
</g>
<g>
</g>
<g>
</g>
<g>
</g>
<g>
</g>
<g>
</g>
</svg>
