<?xml version="1.0" standalone="no"?>
<!DOCTYPE svg PUBLIC "-//W3C//DTD SVG 20010904//EN"
 "http://www.w3.org/TR/2001/REC-SVG-20010904/DTD/svg10.dtd">
<svg version="1.0" xmlns="http://www.w3.org/2000/svg"
 width="120.000000pt" height="120.000000pt" viewBox="0 0 120.000000 120.000000"
 preserveAspectRatio="xMidYMid meet">

<g transform="translate(0.000000,120.000000) scale(0.100000,-0.100000)"
fill="#000000" stroke="none">
<path d="M810 1071 c-111 -34 -178 -126 -210 -289 l-13 -62 -64 0 c-42 0 -65
-4 -67 -12 -3 -7 -7 -25 -10 -40 l-6 -28 65 0 c55 0 65 -3 65 -17 0 -48 -72
-361 -92 -401 -28 -57 -42 -62 -58 -21 -8 17 -24 45 -38 60 -65 78 -185 -15
-127 -98 36 -52 164 -56 261 -8 99 49 152 153 192 380 l18 100 67 3 c42 2 69
8 72 15 2 7 6 24 9 40 l6 27 -71 0 -70 0 6 58 c9 79 35 203 46 224 15 27 24
22 44 -23 22 -49 49 -69 90 -69 54 0 96 64 74 113 -22 48 -114 71 -189 48z"/>
</g>
</svg>
